<mxfile modified="2022-05-06T15:26:41.753Z" host="app.diagrams.net" agent="5.0 (Windows NT 10.0; Win64; x64) AppleWebKit/537.36 (KHTML, like Gecko) Chrome/100.0.4896.127 Safari/537.36" etag="vhP7p4FMr5l-8spRr8ko" version="15.6.6" type="github">
  <diagram id="Ht1M8jgEwFfnCIfOTk4-" name="Page-1">
    <mxGraphModel dx="2899" dy="912" grid="1" gridSize="10" guides="1" tooltips="1" connect="1" arrows="1" fold="1" page="1" pageScale="1" pageWidth="1169" pageHeight="827" math="0" shadow="0">
      <root>
        <mxCell id="0" />
        <mxCell id="1" parent="0" />
        <mxCell id="BFQpyUgomfKUz68zjJW1-136" value="" style="rounded=1;whiteSpace=wrap;html=1;fontColor=default;fillColor=default;strokeColor=default;arcSize=4;" vertex="1" parent="1">
          <mxGeometry x="900" y="930" width="550" height="204.55" as="geometry" />
        </mxCell>
        <mxCell id="BFQpyUgomfKUz68zjJW1-132" value="" style="rounded=1;whiteSpace=wrap;html=1;fontColor=default;fillColor=default;strokeColor=default;arcSize=4;" vertex="1" parent="1">
          <mxGeometry x="900" y="680" width="550" height="200" as="geometry" />
        </mxCell>
        <mxCell id="BFQpyUgomfKUz68zjJW1-102" value="" style="rounded=1;whiteSpace=wrap;html=1;fontColor=default;fillColor=default;strokeColor=default;" vertex="1" parent="1">
          <mxGeometry x="920" y="700" width="230" height="130" as="geometry" />
        </mxCell>
        <mxCell id="BFQpyUgomfKUz68zjJW1-103" value="QA" style="verticalLabelPosition=bottom;html=1;verticalAlign=top;align=center;strokeColor=none;fillColor=#00BEF2;shape=mxgraph.azure.user;fontColor=default;" vertex="1" parent="1">
          <mxGeometry x="1070" y="740" width="47.5" height="50" as="geometry" />
        </mxCell>
        <mxCell id="BFQpyUgomfKUz68zjJW1-13" value="A" style="rounded=1;whiteSpace=wrap;html=1;fontColor=default;fillColor=default;strokeColor=default;arcSize=4;" vertex="1" parent="1">
          <mxGeometry x="40" y="780" width="480" height="300" as="geometry" />
        </mxCell>
        <mxCell id="BFQpyUgomfKUz68zjJW1-15" value="" style="rounded=1;whiteSpace=wrap;html=1;fontColor=default;fillColor=default;strokeColor=default;" vertex="1" parent="1">
          <mxGeometry x="72.5" y="820" width="117.5" height="180" as="geometry" />
        </mxCell>
        <mxCell id="BFQpyUgomfKUz68zjJW1-16" value="" style="rounded=1;whiteSpace=wrap;html=1;fontColor=default;fillColor=default;strokeColor=default;" vertex="1" parent="1">
          <mxGeometry x="221.25" y="820" width="117.5" height="180" as="geometry" />
        </mxCell>
        <mxCell id="BFQpyUgomfKUz68zjJW1-17" value="" style="rounded=1;whiteSpace=wrap;html=1;fontColor=default;fillColor=default;strokeColor=default;" vertex="1" parent="1">
          <mxGeometry x="370" y="820" width="117.5" height="180" as="geometry" />
        </mxCell>
        <mxCell id="BFQpyUgomfKUz68zjJW1-25" value="BRANCH CREATION/UPDATE" style="edgeStyle=orthogonalEdgeStyle;rounded=0;orthogonalLoop=1;jettySize=auto;html=1;fontColor=default;strokeColor=#82b366;labelBackgroundColor=default;entryX=0.24;entryY=0.24;entryDx=0;entryDy=0;entryPerimeter=0;fillColor=#d5e8d4;endArrow=block;endFill=0;strokeWidth=3;endSize=8;exitX=0;exitY=0.5;exitDx=0;exitDy=0;exitPerimeter=0;horizontal=0;fontStyle=1;fontSize=12;" edge="1" parent="1" source="BFQpyUgomfKUz68zjJW1-8" target="BFQpyUgomfKUz68zjJW1-14">
          <mxGeometry x="0.6735" relative="1" as="geometry">
            <mxPoint x="132" y="830" as="targetPoint" />
            <mxPoint as="offset" />
          </mxGeometry>
        </mxCell>
        <mxCell id="BFQpyUgomfKUz68zjJW1-27" value="BRANCH CREATION/UPDATE" style="edgeStyle=orthogonalEdgeStyle;rounded=0;orthogonalLoop=1;jettySize=auto;html=1;entryX=0.24;entryY=0.24;entryDx=0;entryDy=0;entryPerimeter=0;labelBackgroundColor=default;fontColor=default;strokeColor=#82b366;fillColor=#d5e8d4;endArrow=block;endFill=0;strokeWidth=3;endSize=8;exitX=0;exitY=0.5;exitDx=0;exitDy=0;exitPerimeter=0;horizontal=0;fontStyle=1;fontSize=12;" edge="1" parent="1" source="BFQpyUgomfKUz68zjJW1-8" target="BFQpyUgomfKUz68zjJW1-22">
          <mxGeometry x="0.6199" relative="1" as="geometry">
            <mxPoint as="offset" />
          </mxGeometry>
        </mxCell>
        <mxCell id="BFQpyUgomfKUz68zjJW1-28" value="&lt;b style=&quot;font-size: 12px;&quot;&gt;BRANCH CREATION/UPDATE&lt;/b&gt;" style="edgeStyle=orthogonalEdgeStyle;rounded=0;orthogonalLoop=1;jettySize=auto;html=1;entryX=0.24;entryY=0.24;entryDx=0;entryDy=0;entryPerimeter=0;labelBackgroundColor=default;fontColor=default;strokeColor=#82b366;fillColor=#d5e8d4;endArrow=block;endFill=0;strokeWidth=3;endSize=8;exitX=0;exitY=0.5;exitDx=0;exitDy=0;exitPerimeter=0;horizontal=0;fontSize=12;" edge="1" parent="1" source="BFQpyUgomfKUz68zjJW1-8" target="BFQpyUgomfKUz68zjJW1-24">
          <mxGeometry x="0.5451" relative="1" as="geometry">
            <mxPoint as="offset" />
          </mxGeometry>
        </mxCell>
        <mxCell id="BFQpyUgomfKUz68zjJW1-108" style="edgeStyle=orthogonalEdgeStyle;rounded=0;orthogonalLoop=1;jettySize=auto;html=1;entryX=0.5;entryY=0;entryDx=0;entryDy=0;labelBackgroundColor=default;fontSize=12;fontColor=default;endArrow=block;endFill=0;endSize=8;strokeColor=#666666;strokeWidth=3;fillColor=#f5f5f5;startArrow=none;exitX=1;exitY=0.5;exitDx=0;exitDy=0;" edge="1" parent="1" source="BFQpyUgomfKUz68zjJW1-112" target="BFQpyUgomfKUz68zjJW1-102">
          <mxGeometry relative="1" as="geometry" />
        </mxCell>
        <mxCell id="BFQpyUgomfKUz68zjJW1-142" style="edgeStyle=orthogonalEdgeStyle;rounded=0;orthogonalLoop=1;jettySize=auto;html=1;labelBackgroundColor=default;fontSize=12;fontColor=default;endArrow=block;endFill=0;endSize=8;strokeColor=#666666;strokeWidth=3;fillColor=#f5f5f5;" edge="1" parent="1" source="BFQpyUgomfKUz68zjJW1-8" target="BFQpyUgomfKUz68zjJW1-133">
          <mxGeometry relative="1" as="geometry" />
        </mxCell>
        <mxCell id="BFQpyUgomfKUz68zjJW1-8" value="&lt;span style=&quot;font-family: &amp;quot;consolas&amp;quot; , &amp;quot;lucida console&amp;quot; , &amp;quot;courier new&amp;quot; , monospace ; text-align: left ; background-color: rgb(255 , 255 , 255)&quot;&gt;&lt;b&gt;feature/&lt;br&gt;marketPlacePayments_clicknCollect_feature_development&lt;/b&gt;&lt;/span&gt;" style="verticalLabelPosition=bottom;html=1;verticalAlign=top;align=center;strokeColor=none;fillColor=#00BEF2;shape=mxgraph.azure.git_repository;fontColor=default;" vertex="1" parent="1">
          <mxGeometry x="840" y="520" width="50" height="50" as="geometry" />
        </mxCell>
        <mxCell id="BFQpyUgomfKUz68zjJW1-11" value="DEV 1" style="verticalLabelPosition=bottom;html=1;verticalAlign=top;align=center;strokeColor=none;fillColor=#00BEF2;shape=mxgraph.azure.user;fontColor=default;" vertex="1" parent="1">
          <mxGeometry x="107.5" y="920" width="47.5" height="50" as="geometry" />
        </mxCell>
        <mxCell id="BFQpyUgomfKUz68zjJW1-34" style="edgeStyle=orthogonalEdgeStyle;rounded=0;orthogonalLoop=1;jettySize=auto;html=1;exitX=0.76;exitY=0.24;exitDx=0;exitDy=0;exitPerimeter=0;labelBackgroundColor=default;fontColor=default;endArrow=block;endFill=0;endSize=8;strokeColor=#9673a6;strokeWidth=3;fillColor=#e1d5e7;entryX=0.24;entryY=0.76;entryDx=0;entryDy=0;entryPerimeter=0;" edge="1" parent="1" source="BFQpyUgomfKUz68zjJW1-14" target="BFQpyUgomfKUz68zjJW1-8">
          <mxGeometry relative="1" as="geometry">
            <mxPoint x="850" y="560" as="targetPoint" />
            <Array as="points">
              <mxPoint x="144" y="558" />
            </Array>
          </mxGeometry>
        </mxCell>
        <mxCell id="BFQpyUgomfKUz68zjJW1-14" value="&lt;span style=&quot;font-family: &amp;quot;consolas&amp;quot; , &amp;quot;lucida console&amp;quot; , &amp;quot;courier new&amp;quot; , monospace ; text-align: left ; background-color: rgb(255 , 255 , 255)&quot;&gt;&lt;b&gt;FB 1&lt;/b&gt;&lt;/span&gt;" style="verticalLabelPosition=bottom;html=1;verticalAlign=top;align=center;strokeColor=none;fillColor=#00BEF2;shape=mxgraph.azure.git_repository;fontColor=default;" vertex="1" parent="1">
          <mxGeometry x="106.25" y="840" width="50" height="50" as="geometry" />
        </mxCell>
        <mxCell id="BFQpyUgomfKUz68zjJW1-18" value="DEV 2" style="verticalLabelPosition=bottom;html=1;verticalAlign=top;align=center;strokeColor=none;fillColor=#00BEF2;shape=mxgraph.azure.user;fontColor=default;" vertex="1" parent="1">
          <mxGeometry x="256.25" y="920" width="47.5" height="50" as="geometry" />
        </mxCell>
        <mxCell id="BFQpyUgomfKUz68zjJW1-19" value="DEV 3" style="verticalLabelPosition=bottom;html=1;verticalAlign=top;align=center;strokeColor=none;fillColor=#00BEF2;shape=mxgraph.azure.user;fontColor=default;" vertex="1" parent="1">
          <mxGeometry x="405" y="920" width="47.5" height="50" as="geometry" />
        </mxCell>
        <mxCell id="BFQpyUgomfKUz68zjJW1-33" style="edgeStyle=orthogonalEdgeStyle;rounded=0;orthogonalLoop=1;jettySize=auto;html=1;labelBackgroundColor=default;fontColor=default;endArrow=block;endFill=0;endSize=8;strokeColor=#9673a6;strokeWidth=3;exitX=0.76;exitY=0.24;exitDx=0;exitDy=0;exitPerimeter=0;fillColor=#e1d5e7;entryX=0.24;entryY=0.76;entryDx=0;entryDy=0;entryPerimeter=0;" edge="1" parent="1" source="BFQpyUgomfKUz68zjJW1-22" target="BFQpyUgomfKUz68zjJW1-8">
          <mxGeometry relative="1" as="geometry">
            <mxPoint x="850" y="560" as="targetPoint" />
            <Array as="points">
              <mxPoint x="293" y="558" />
            </Array>
          </mxGeometry>
        </mxCell>
        <mxCell id="BFQpyUgomfKUz68zjJW1-22" value="&lt;span style=&quot;font-family: &amp;quot;consolas&amp;quot; , &amp;quot;lucida console&amp;quot; , &amp;quot;courier new&amp;quot; , monospace ; text-align: left ; background-color: rgb(255 , 255 , 255)&quot;&gt;&lt;b&gt;FB 2&lt;/b&gt;&lt;/span&gt;" style="verticalLabelPosition=bottom;html=1;verticalAlign=top;align=center;strokeColor=none;fillColor=#00BEF2;shape=mxgraph.azure.git_repository;fontColor=default;" vertex="1" parent="1">
          <mxGeometry x="255" y="840" width="50" height="50" as="geometry" />
        </mxCell>
        <mxCell id="BFQpyUgomfKUz68zjJW1-32" style="edgeStyle=orthogonalEdgeStyle;rounded=0;orthogonalLoop=1;jettySize=auto;html=1;labelBackgroundColor=default;fontColor=default;endArrow=block;endFill=0;endSize=8;strokeColor=#9673a6;strokeWidth=3;entryX=0.24;entryY=0.76;entryDx=0;entryDy=0;entryPerimeter=0;fillColor=#e1d5e7;exitX=0.76;exitY=0.24;exitDx=0;exitDy=0;exitPerimeter=0;" edge="1" parent="1" source="BFQpyUgomfKUz68zjJW1-24" target="BFQpyUgomfKUz68zjJW1-8">
          <mxGeometry relative="1" as="geometry">
            <mxPoint x="852" y="570" as="targetPoint" />
            <Array as="points">
              <mxPoint x="442" y="558" />
            </Array>
          </mxGeometry>
        </mxCell>
        <mxCell id="BFQpyUgomfKUz68zjJW1-24" value="&lt;span style=&quot;font-family: &amp;quot;consolas&amp;quot; , &amp;quot;lucida console&amp;quot; , &amp;quot;courier new&amp;quot; , monospace ; text-align: left ; background-color: rgb(255 , 255 , 255)&quot;&gt;&lt;b&gt;FB 3&lt;/b&gt;&lt;/span&gt;" style="verticalLabelPosition=bottom;html=1;verticalAlign=top;align=center;strokeColor=none;fillColor=#00BEF2;shape=mxgraph.azure.git_repository;fontColor=default;" vertex="1" parent="1">
          <mxGeometry x="403.75" y="840" width="50" height="50" as="geometry" />
        </mxCell>
        <mxCell id="BFQpyUgomfKUz68zjJW1-36" value="" style="shape=image;verticalLabelPosition=bottom;labelBackgroundColor=#ffffff;verticalAlign=top;aspect=fixed;imageAspect=0;image=data:image/svg+xml,PHN2ZyB4bWxucz0iaHR0cDovL3d3dy53My5vcmcvMjAwMC9zdmciIHZpZXdCb3g9IjAgMCA2NCA2NCIgd2lkdGg9IjY0IiBoZWlnaHQ9IjY0Ij48ZGVmcz48c3R5bGU+LmNscy0xe2ZpbGw6bm9uZTt9LmNscy0ye2ZpbGw6IzZiOTY2MDt9LmNscy0ze2ZpbGw6IzQxNjUzNzt9LmNscy00e2ZpbGw6I2ZmZjt9PC9zdHlsZT48L2RlZnM+PHRpdGxlPmNvbW1lcmNlLWRheTwvdGl0bGU+PGcgaWQ9ImludmlzaS1ib3JkZXIiPjxyZWN0IGNsYXNzPSJjbHMtMSIgd2lkdGg9IjY0IiBoZWlnaHQ9IjY0Ii8+PC9nPjxnIGlkPSJpY29uIj48cG9seWdvbiBjbGFzcz0iY2xzLTIiIHBvaW50cz0iMTkuOTI5IDM2IDUxLjkyOSAzNiA1NiAxNyAxNS45MjkgMTcgMTkuOTI5IDM2Ii8+PHBhdGggY2xhc3M9ImNscy0zIiBkPSJNNTMuOTI4NzEsNDdoLTMzYTIuMDAwMTEsMi4wMDAxMSwwLDAsMS0xLjk2LTEuNjAwNTlMMTIuMzY2NywxM0g4QTIsMiwwLDAsMSw4LDloNmEyLjAwMDExLDIuMDAwMTEsMCwwLDEsMS45NiwxLjYwMDU5TDIyLjU2Miw0M2gzMS4zNjY3YTIsMiwwLDAsMSwwLDRaIi8+PHBhdGggY2xhc3M9ImNscy0zIiBkPSJNNTEuOTI4NzEsMzhoLTMyYTIsMiwwLDAsMSwwLTRINTAuMzEybDMuMjEzODctMTVIMTUuOTI4NzFhMiwyLDAsMCwxLDAtNEg1NmExLjk5OTY0LDEuOTk5NjQsMCwwLDEsMS45NTU1NywyLjQxODk1bC00LjA3MTI5LDE5QTIuMDAwNjIsMi4wMDA2MiwwLDAsMSw1MS45Mjg3MSwzOFoiLz48Y2lyY2xlIGNsYXNzPSJjbHMtNCIgY3g9IjIxIiBjeT0iNDkiIHI9IjQiLz48cGF0aCBjbGFzcz0iY2xzLTMiIGQ9Ik0yMSw1NWE2LDYsMCwxLDEsNi02QTYuMDA2NTYsNi4wMDY1NiwwLDAsMSwyMSw1NVptMC04YTIsMiwwLDEsMCwyLDJBMi4wMDIyOSwyLjAwMjI5LDAsMCwwLDIxLDQ3WiIvPjxjaXJjbGUgY2xhc3M9ImNscy00IiBjeD0iNDciIGN5PSI0OSIgcj0iNCIvPjxwYXRoIGNsYXNzPSJjbHMtMyIgZD0iTTQ3LDU1YTYsNiwwLDEsMSw2LTZBNi4wMDY1Niw2LjAwNjU2LDAsMCwxLDQ3LDU1Wm0wLThhMiwyLDAsMSwwLDIsMkEyLjAwMjI5LDIuMDAyMjksMCwwLDAsNDcsNDdaIi8+PC9nPjwvc3ZnPg==;fontColor=default;strokeColor=default;" vertex="1" parent="1">
          <mxGeometry x="480" y="1050" width="64" height="64" as="geometry" />
        </mxCell>
        <mxCell id="BFQpyUgomfKUz68zjJW1-39" value="OPEN PR" style="edgeStyle=orthogonalEdgeStyle;rounded=0;orthogonalLoop=1;jettySize=auto;html=1;labelBackgroundColor=default;fontSize=12;fontColor=default;endArrow=block;endFill=0;endSize=8;strokeColor=#666666;strokeWidth=3;fillColor=#f5f5f5;fontStyle=1" edge="1" parent="1" source="BFQpyUgomfKUz68zjJW1-37">
          <mxGeometry relative="1" as="geometry">
            <mxPoint x="501" y="560" as="targetPoint" />
          </mxGeometry>
        </mxCell>
        <mxCell id="BFQpyUgomfKUz68zjJW1-37" value="DEV" style="verticalLabelPosition=bottom;html=1;verticalAlign=top;align=center;strokeColor=none;fillColor=#00BEF2;shape=mxgraph.azure.user;fontColor=default;" vertex="1" parent="1">
          <mxGeometry x="482" y="620" width="38" height="40" as="geometry" />
        </mxCell>
        <mxCell id="BFQpyUgomfKUz68zjJW1-41" value="TECHNICAL REVIEW&lt;br&gt;APPROVE" style="edgeStyle=orthogonalEdgeStyle;rounded=0;orthogonalLoop=1;jettySize=auto;html=1;labelBackgroundColor=default;fontSize=12;fontColor=default;endArrow=block;endFill=0;endSize=8;strokeColor=#666666;strokeWidth=3;fillColor=#f5f5f5;fontStyle=1" edge="1" parent="1" source="BFQpyUgomfKUz68zjJW1-42">
          <mxGeometry x="-0.7508" relative="1" as="geometry">
            <mxPoint x="571" y="560" as="targetPoint" />
            <mxPoint x="1" as="offset" />
          </mxGeometry>
        </mxCell>
        <mxCell id="BFQpyUgomfKUz68zjJW1-42" value="TEAM LEADER" style="verticalLabelPosition=bottom;html=1;verticalAlign=top;align=center;strokeColor=none;fillColor=#00BEF2;shape=mxgraph.azure.user;fontColor=default;labelBackgroundColor=default;" vertex="1" parent="1">
          <mxGeometry x="551.5" y="730" width="38" height="40" as="geometry" />
        </mxCell>
        <mxCell id="BFQpyUgomfKUz68zjJW1-44" value="TECHNICAL REVIEW&lt;br&gt;GIT/COMMIT/JIRA REVIEW&lt;br&gt;APPROVE &amp;amp; MERGE" style="edgeStyle=orthogonalEdgeStyle;rounded=0;orthogonalLoop=1;jettySize=auto;html=1;labelBackgroundColor=default;fontSize=12;fontColor=default;endArrow=block;endFill=0;endSize=8;strokeColor=#666666;strokeWidth=3;fillColor=#f5f5f5;fontStyle=1" edge="1" parent="1" source="BFQpyUgomfKUz68zjJW1-45">
          <mxGeometry x="-0.7508" relative="1" as="geometry">
            <mxPoint x="659.5" y="560" as="targetPoint" />
            <mxPoint x="1" as="offset" />
          </mxGeometry>
        </mxCell>
        <mxCell id="BFQpyUgomfKUz68zjJW1-45" value="TEAM ARCHITECT" style="verticalLabelPosition=bottom;html=1;verticalAlign=top;align=center;strokeColor=none;fillColor=#00BEF2;shape=mxgraph.azure.user;fontColor=default;labelBackgroundColor=default;" vertex="1" parent="1">
          <mxGeometry x="640" y="860" width="38" height="40" as="geometry" />
        </mxCell>
        <mxCell id="BFQpyUgomfKUz68zjJW1-47" style="edgeStyle=orthogonalEdgeStyle;rounded=0;orthogonalLoop=1;jettySize=auto;html=1;labelBackgroundColor=default;fontSize=12;fontColor=default;endArrow=block;endFill=0;endSize=8;strokeColor=#82b366;strokeWidth=3;entryX=0.24;entryY=0.24;entryDx=0;entryDy=0;entryPerimeter=0;fillColor=#d5e8d4;" edge="1" parent="1" source="BFQpyUgomfKUz68zjJW1-46" target="BFQpyUgomfKUz68zjJW1-8">
          <mxGeometry relative="1" as="geometry">
            <mxPoint x="850" y="510" as="targetPoint" />
            <Array as="points">
              <mxPoint x="430" y="532" />
            </Array>
          </mxGeometry>
        </mxCell>
        <mxCell id="BFQpyUgomfKUz68zjJW1-124" style="edgeStyle=orthogonalEdgeStyle;rounded=0;orthogonalLoop=1;jettySize=auto;html=1;entryX=0.5;entryY=1;entryDx=0;entryDy=0;entryPerimeter=0;labelBackgroundColor=default;fontSize=12;fontColor=default;endArrow=block;endFill=0;endSize=8;strokeColor=#82b366;strokeWidth=3;fillColor=#d5e8d4;" edge="1" parent="1" source="BFQpyUgomfKUz68zjJW1-46" target="BFQpyUgomfKUz68zjJW1-121">
          <mxGeometry relative="1" as="geometry" />
        </mxCell>
        <mxCell id="BFQpyUgomfKUz68zjJW1-128" style="edgeStyle=orthogonalEdgeStyle;rounded=0;orthogonalLoop=1;jettySize=auto;html=1;labelBackgroundColor=default;fontSize=12;fontColor=default;endArrow=block;endFill=0;endSize=8;strokeColor=#6c8ebf;strokeWidth=3;fillColor=#dae8fc;" edge="1" parent="1" source="BFQpyUgomfKUz68zjJW1-46">
          <mxGeometry relative="1" as="geometry">
            <mxPoint x="160" y="365" as="targetPoint" />
          </mxGeometry>
        </mxCell>
        <mxCell id="BFQpyUgomfKUz68zjJW1-46" value="&lt;div style=&quot;text-align: left&quot;&gt;&lt;font face=&quot;consolas, lucida console, courier new, monospace&quot;&gt;&lt;span style=&quot;background-color: rgb(255 , 255 , 255)&quot;&gt;&lt;b&gt;develop&lt;/b&gt;&lt;/span&gt;&lt;/font&gt;&lt;/div&gt;" style="verticalLabelPosition=bottom;html=1;verticalAlign=top;align=center;strokeColor=none;fillColor=#00BEF2;shape=mxgraph.azure.git_repository;fontColor=default;" vertex="1" parent="1">
          <mxGeometry x="405" y="340" width="50" height="50" as="geometry" />
        </mxCell>
        <mxCell id="BFQpyUgomfKUz68zjJW1-64" value="" style="group;fontColor=default;" vertex="1" connectable="0" parent="1">
          <mxGeometry x="1559" y="1190" width="390" height="260" as="geometry" />
        </mxCell>
        <mxCell id="BFQpyUgomfKUz68zjJW1-48" value="" style="rounded=1;whiteSpace=wrap;html=1;fontColor=default;fillColor=default;strokeColor=default;arcSize=4;" vertex="1" parent="BFQpyUgomfKUz68zjJW1-64">
          <mxGeometry width="390" height="260" as="geometry" />
        </mxCell>
        <mxCell id="BFQpyUgomfKUz68zjJW1-49" value="DESCRIPTION" style="text;html=1;strokeColor=none;fillColor=none;align=center;verticalAlign=middle;whiteSpace=wrap;rounded=0;fontColor=default;fontStyle=1" vertex="1" parent="BFQpyUgomfKUz68zjJW1-64">
          <mxGeometry x="112.5" y="10.909090909090908" width="180" height="32.72727272727273" as="geometry" />
        </mxCell>
        <mxCell id="BFQpyUgomfKUz68zjJW1-53" value="" style="rounded=1;whiteSpace=wrap;html=1;fontColor=default;fillColor=#f5f5f5;strokeColor=#666666;" vertex="1" parent="BFQpyUgomfKUz68zjJW1-64">
          <mxGeometry x="20" y="54.54545454545454" width="80" height="21.818181818181817" as="geometry" />
        </mxCell>
        <mxCell id="BFQpyUgomfKUz68zjJW1-54" value="" style="rounded=1;whiteSpace=wrap;html=1;fillColor=#d5e8d4;strokeColor=#82b366;fontColor=default;" vertex="1" parent="BFQpyUgomfKUz68zjJW1-64">
          <mxGeometry x="20" y="87.27272727272727" width="80" height="21.818181818181817" as="geometry" />
        </mxCell>
        <mxCell id="BFQpyUgomfKUz68zjJW1-55" value="" style="rounded=1;whiteSpace=wrap;html=1;fillColor=#e1d5e7;strokeColor=#9673a6;fontColor=default;" vertex="1" parent="BFQpyUgomfKUz68zjJW1-64">
          <mxGeometry x="20" y="119.99999999999999" width="80" height="21.818181818181817" as="geometry" />
        </mxCell>
        <mxCell id="BFQpyUgomfKUz68zjJW1-56" value="" style="rounded=1;whiteSpace=wrap;html=1;fillColor=#ffe6cc;strokeColor=#d79b00;fontColor=default;" vertex="1" parent="BFQpyUgomfKUz68zjJW1-64">
          <mxGeometry x="20" y="155.72727272727272" width="80" height="21.818181818181817" as="geometry" />
        </mxCell>
        <mxCell id="BFQpyUgomfKUz68zjJW1-57" value="Stakeholder&lt;span style=&quot;font-family: monospace; font-size: 0px;&quot;&gt;%3CmxGraphModel%3E%3Croot%3E%3CmxCell%20id%3D%220%22%2F%3E%3CmxCell%20id%3D%221%22%20parent%3D%220%22%2F%3E%3CmxCell%20id%3D%222%22%20value%3D%22DESCRIPTION%22%20style%3D%22text%3Bhtml%3D1%3BstrokeColor%3Dnone%3BfillColor%3Dnone%3Balign%3Dcenter%3BverticalAlign%3Dmiddle%3BwhiteSpace%3Dwrap%3Brounded%3D0%3BfontColor%3Ddefault%3BfontStyle%3D1%22%20vertex%3D%221%22%20parent%3D%221%22%3E%3CmxGeometry%20x%3D%22820%22%20y%3D%22980%22%20width%3D%22180%22%20height%3D%2230%22%20as%3D%22geometry%22%2F%3E%3C%2FmxCell%3E%3C%2Froot%3E%3C%2FmxGraphModel%3E&lt;/span&gt;" style="text;html=1;strokeColor=none;fillColor=none;align=left;verticalAlign=middle;whiteSpace=wrap;rounded=0;fontColor=default;fontStyle=0;fontSize=12;" vertex="1" parent="BFQpyUgomfKUz68zjJW1-64">
          <mxGeometry x="112.5" y="49.090909090909086" width="180" height="32.72727272727273" as="geometry" />
        </mxCell>
        <mxCell id="BFQpyUgomfKUz68zjJW1-58" value="Branch creation/update - Rebase" style="text;html=1;strokeColor=none;fillColor=none;align=left;verticalAlign=middle;whiteSpace=wrap;rounded=0;fontColor=default;fontStyle=0;fontSize=12;" vertex="1" parent="BFQpyUgomfKUz68zjJW1-64">
          <mxGeometry x="112.5" y="81.81818181818181" width="180" height="32.72727272727273" as="geometry" />
        </mxCell>
        <mxCell id="BFQpyUgomfKUz68zjJW1-59" value="PR to project branch - Squash Merge" style="text;html=1;strokeColor=none;fillColor=none;align=left;verticalAlign=middle;whiteSpace=wrap;rounded=0;fontColor=default;fontStyle=0;fontSize=12;" vertex="1" parent="BFQpyUgomfKUz68zjJW1-64">
          <mxGeometry x="112.5" y="114.54545454545453" width="237.5" height="32.72727272727273" as="geometry" />
        </mxCell>
        <mxCell id="BFQpyUgomfKUz68zjJW1-60" value="PR to Release / Develop - Merge FF" style="text;html=1;strokeColor=none;fillColor=none;align=left;verticalAlign=middle;whiteSpace=wrap;rounded=0;fontColor=default;fontStyle=0;fontSize=12;" vertex="1" parent="BFQpyUgomfKUz68zjJW1-64">
          <mxGeometry x="112.5" y="150.27272727272725" width="237.5" height="32.72727272727273" as="geometry" />
        </mxCell>
        <mxCell id="BFQpyUgomfKUz68zjJW1-62" value="PR to master - Merge" style="text;html=1;strokeColor=none;fillColor=none;align=left;verticalAlign=middle;whiteSpace=wrap;rounded=0;fontColor=default;fontStyle=0;fontSize=12;" vertex="1" parent="BFQpyUgomfKUz68zjJW1-64">
          <mxGeometry x="112.5" y="183" width="237.5" height="32.72727272727273" as="geometry" />
        </mxCell>
        <mxCell id="BFQpyUgomfKUz68zjJW1-63" value="" style="rounded=1;whiteSpace=wrap;html=1;fillColor=#dae8fc;strokeColor=#6c8ebf;fontColor=default;" vertex="1" parent="BFQpyUgomfKUz68zjJW1-64">
          <mxGeometry x="20" y="188.45454545454544" width="80" height="21.818181818181817" as="geometry" />
        </mxCell>
        <mxCell id="BFQpyUgomfKUz68zjJW1-68" value="" style="rounded=1;whiteSpace=wrap;html=1;fillColor=#f8cecc;strokeColor=#b85450;fontColor=default;dashed=1;" vertex="1" parent="1">
          <mxGeometry x="1579" y="1408.1845454545455" width="80" height="21.818181818181817" as="geometry" />
        </mxCell>
        <mxCell id="BFQpyUgomfKUz68zjJW1-69" value="SFCC SOM Integration" style="text;html=1;strokeColor=none;fillColor=none;align=left;verticalAlign=middle;whiteSpace=wrap;rounded=0;fontColor=default;fontStyle=0;fontSize=12;" vertex="1" parent="1">
          <mxGeometry x="1671.5" y="1402.73" width="237.5" height="32.72727272727273" as="geometry" />
        </mxCell>
        <mxCell id="BFQpyUgomfKUz68zjJW1-79" value="A" style="rounded=1;whiteSpace=wrap;html=1;fontColor=default;fillColor=default;strokeColor=default;arcSize=4;" vertex="1" parent="1">
          <mxGeometry x="40" y="1185.45" width="480" height="204.55" as="geometry" />
        </mxCell>
        <mxCell id="BFQpyUgomfKUz68zjJW1-80" value="SBX1" style="rounded=1;whiteSpace=wrap;html=1;fontColor=default;fillColor=default;strokeColor=default;" vertex="1" parent="1">
          <mxGeometry x="72.5" y="1225.45" width="117.5" height="114.55" as="geometry" />
        </mxCell>
        <mxCell id="BFQpyUgomfKUz68zjJW1-81" value="SBX2" style="rounded=1;whiteSpace=wrap;html=1;fontColor=default;fillColor=default;strokeColor=default;" vertex="1" parent="1">
          <mxGeometry x="221.25" y="1225.45" width="117.5" height="114.55" as="geometry" />
        </mxCell>
        <mxCell id="BFQpyUgomfKUz68zjJW1-82" value="SBX1" style="rounded=1;whiteSpace=wrap;html=1;fontColor=default;fillColor=default;strokeColor=default;" vertex="1" parent="1">
          <mxGeometry x="370" y="1225.45" width="117.5" height="114.55" as="geometry" />
        </mxCell>
        <mxCell id="BFQpyUgomfKUz68zjJW1-86" value="SOM SANDBOXES" style="text;html=1;strokeColor=none;fillColor=none;align=center;verticalAlign=middle;whiteSpace=wrap;rounded=0;fontColor=default;fontStyle=1" vertex="1" parent="1">
          <mxGeometry x="190" y="1350" width="180" height="30" as="geometry" />
        </mxCell>
        <mxCell id="BFQpyUgomfKUz68zjJW1-97" value="" style="shape=image;verticalLabelPosition=bottom;labelBackgroundColor=#ffffff;verticalAlign=top;aspect=fixed;imageAspect=0;image=https://upload.wikimedia.org/wikipedia/commons/thumb/f/f9/Salesforce.com_logo.svg/1280px-Salesforce.com_logo.svg.png;fontColor=default;" vertex="1" parent="1">
          <mxGeometry x="482" y="1360" width="68.57" height="48" as="geometry" />
        </mxCell>
        <mxCell id="BFQpyUgomfKUz68zjJW1-98" style="edgeStyle=orthogonalEdgeStyle;rounded=0;orthogonalLoop=1;jettySize=auto;html=1;entryX=0.5;entryY=0;entryDx=0;entryDy=0;labelBackgroundColor=default;fontSize=12;fontColor=default;endArrow=block;endFill=0;endSize=8;strokeColor=#b85450;strokeWidth=3;fillColor=#f8cecc;dashed=1;" edge="1" parent="1" source="BFQpyUgomfKUz68zjJW1-15" target="BFQpyUgomfKUz68zjJW1-80">
          <mxGeometry relative="1" as="geometry" />
        </mxCell>
        <mxCell id="BFQpyUgomfKUz68zjJW1-99" style="edgeStyle=orthogonalEdgeStyle;rounded=0;orthogonalLoop=1;jettySize=auto;html=1;entryX=0.5;entryY=0;entryDx=0;entryDy=0;labelBackgroundColor=default;fontSize=12;fontColor=default;endArrow=block;endFill=0;endSize=8;strokeColor=#b85450;strokeWidth=3;fillColor=#f8cecc;dashed=1;" edge="1" parent="1">
          <mxGeometry relative="1" as="geometry">
            <mxPoint x="428.07571428571447" y="1000" as="sourcePoint" />
            <mxPoint x="428.04" y="1225.45" as="targetPoint" />
            <Array as="points">
              <mxPoint x="428" y="1050" />
              <mxPoint x="428" y="1050" />
            </Array>
          </mxGeometry>
        </mxCell>
        <mxCell id="BFQpyUgomfKUz68zjJW1-100" style="edgeStyle=orthogonalEdgeStyle;rounded=0;orthogonalLoop=1;jettySize=auto;html=1;entryX=0.5;entryY=0;entryDx=0;entryDy=0;labelBackgroundColor=default;fontSize=12;fontColor=default;endArrow=block;endFill=0;endSize=8;strokeColor=#b85450;strokeWidth=3;fillColor=#f8cecc;dashed=1;" edge="1" parent="1">
          <mxGeometry relative="1" as="geometry">
            <mxPoint x="279.3257142857144" y="1001.82" as="sourcePoint" />
            <mxPoint x="279.28999999999996" y="1227.27" as="targetPoint" />
          </mxGeometry>
        </mxCell>
        <mxCell id="BFQpyUgomfKUz68zjJW1-30" value="ON DEMAND SANDBOXES" style="text;html=1;strokeColor=none;fillColor=default;align=center;verticalAlign=middle;whiteSpace=wrap;rounded=0;fontColor=default;fontStyle=1" vertex="1" parent="1">
          <mxGeometry x="190" y="1010" width="180" height="30" as="geometry" />
        </mxCell>
        <mxCell id="BFQpyUgomfKUz68zjJW1-65" value="Code is uploaded locally to each dev sandbox" style="text;html=1;strokeColor=none;fillColor=default;align=center;verticalAlign=middle;whiteSpace=wrap;rounded=0;fontColor=default;fontStyle=0" vertex="1" parent="1">
          <mxGeometry x="150" y="1040" width="270" height="30" as="geometry" />
        </mxCell>
        <mxCell id="BFQpyUgomfKUz68zjJW1-107" value="&lt;div style=&quot;text-align: left&quot;&gt;&lt;br&gt;&lt;/div&gt;" style="verticalLabelPosition=bottom;html=1;verticalAlign=top;align=center;strokeColor=none;fillColor=#00BEF2;shape=mxgraph.azure.git_repository;fontColor=default;" vertex="1" parent="1">
          <mxGeometry x="956.25" y="740" width="50" height="50" as="geometry" />
        </mxCell>
        <mxCell id="BFQpyUgomfKUz68zjJW1-109" value="RELEASE MANAGER" style="verticalLabelPosition=bottom;html=1;verticalAlign=top;align=center;strokeColor=none;fillColor=#00BEF2;shape=mxgraph.azure.user;fontColor=default;labelBackgroundColor=default;" vertex="1" parent="1">
          <mxGeometry x="1169" y="504" width="38" height="40" as="geometry" />
        </mxCell>
        <mxCell id="BFQpyUgomfKUz68zjJW1-112" value="" style="shape=image;verticalLabelPosition=bottom;labelBackgroundColor=#ffffff;verticalAlign=top;aspect=fixed;imageAspect=0;image=https://upload.wikimedia.org/wikipedia/commons/thumb/e/e9/Jenkins_logo.svg/1200px-Jenkins_logo.svg.png;fontColor=default;" vertex="1" parent="1">
          <mxGeometry x="930" y="505" width="58" height="80" as="geometry" />
        </mxCell>
        <mxCell id="BFQpyUgomfKUz68zjJW1-113" value="" style="edgeStyle=orthogonalEdgeStyle;rounded=0;orthogonalLoop=1;jettySize=auto;html=1;entryX=0;entryY=0.5;entryDx=0;entryDy=0;labelBackgroundColor=default;fontSize=12;fontColor=default;endArrow=none;endFill=0;endSize=8;strokeColor=#666666;strokeWidth=3;fillColor=#f5f5f5;" edge="1" parent="1" source="BFQpyUgomfKUz68zjJW1-8" target="BFQpyUgomfKUz68zjJW1-112">
          <mxGeometry relative="1" as="geometry">
            <mxPoint x="890" y="545" as="sourcePoint" />
            <mxPoint x="1035" y="700" as="targetPoint" />
          </mxGeometry>
        </mxCell>
        <mxCell id="BFQpyUgomfKUz68zjJW1-117" value="SBX3" style="rounded=1;whiteSpace=wrap;html=1;fontColor=default;fillColor=default;strokeColor=default;" vertex="1" parent="1">
          <mxGeometry x="920" y="967.72" width="230" height="114.55" as="geometry" />
        </mxCell>
        <mxCell id="BFQpyUgomfKUz68zjJW1-120" style="edgeStyle=orthogonalEdgeStyle;rounded=0;orthogonalLoop=1;jettySize=auto;html=1;labelBackgroundColor=default;fontSize=12;fontColor=default;endArrow=block;endFill=0;endSize=8;strokeColor=#b85450;strokeWidth=3;fillColor=#f8cecc;dashed=1;entryX=0.5;entryY=0;entryDx=0;entryDy=0;" edge="1" parent="1" source="BFQpyUgomfKUz68zjJW1-102" target="BFQpyUgomfKUz68zjJW1-117">
          <mxGeometry relative="1" as="geometry">
            <mxPoint x="1033.0757142857144" y="879.1" as="sourcePoint" />
            <mxPoint x="1033" y="970" as="targetPoint" />
            <Array as="points" />
          </mxGeometry>
        </mxCell>
        <mxCell id="BFQpyUgomfKUz68zjJW1-125" style="edgeStyle=orthogonalEdgeStyle;rounded=0;orthogonalLoop=1;jettySize=auto;html=1;entryX=0.5;entryY=0;entryDx=0;entryDy=0;entryPerimeter=0;labelBackgroundColor=default;fontSize=12;fontColor=default;endArrow=block;endFill=0;endSize=8;strokeColor=#d79b00;strokeWidth=3;fillColor=#ffe6cc;" edge="1" parent="1" source="BFQpyUgomfKUz68zjJW1-121" target="BFQpyUgomfKUz68zjJW1-46">
          <mxGeometry relative="1" as="geometry" />
        </mxCell>
        <mxCell id="BFQpyUgomfKUz68zjJW1-121" value="&lt;div style=&quot;text-align: left&quot;&gt;&lt;font face=&quot;consolas, lucida console, courier new, monospace&quot;&gt;&lt;span style=&quot;background-color: rgb(255 , 255 , 255)&quot;&gt;&lt;b&gt;release/{squad}-sprint{x}&lt;/b&gt;&lt;/span&gt;&lt;/font&gt;&lt;/div&gt;" style="verticalLabelPosition=bottom;html=1;verticalAlign=top;align=center;strokeColor=none;fillColor=#00BEF2;shape=mxgraph.azure.git_repository;fontColor=default;" vertex="1" parent="1">
          <mxGeometry x="720" y="180" width="50" height="50" as="geometry" />
        </mxCell>
        <mxCell id="BFQpyUgomfKUz68zjJW1-122" value="&lt;div style=&quot;text-align: left&quot;&gt;&lt;font face=&quot;consolas, lucida console, courier new, monospace&quot;&gt;&lt;span style=&quot;background-color: rgb(255 , 255 , 255)&quot;&gt;&lt;b&gt;master&lt;/b&gt;&lt;/span&gt;&lt;/font&gt;&lt;/div&gt;" style="verticalLabelPosition=bottom;html=1;verticalAlign=top;align=center;strokeColor=none;fillColor=#00BEF2;shape=mxgraph.azure.git_repository;fontColor=default;" vertex="1" parent="1">
          <mxGeometry x="105" y="340" width="50" height="50" as="geometry" />
        </mxCell>
        <mxCell id="BFQpyUgomfKUz68zjJW1-105" value="DEV 02" style="text;html=1;strokeColor=none;fillColor=default;align=center;verticalAlign=middle;whiteSpace=wrap;rounded=0;fontColor=default;fontStyle=1" vertex="1" parent="1">
          <mxGeometry x="910" y="840" width="250" height="30" as="geometry" />
        </mxCell>
        <mxCell id="BFQpyUgomfKUz68zjJW1-133" value="" style="rounded=1;whiteSpace=wrap;html=1;fontColor=default;fillColor=default;strokeColor=default;" vertex="1" parent="1">
          <mxGeometry x="1202" y="700" width="230" height="130" as="geometry" />
        </mxCell>
        <mxCell id="BFQpyUgomfKUz68zjJW1-134" value="DEVS" style="verticalLabelPosition=bottom;html=1;verticalAlign=top;align=center;strokeColor=none;fillColor=#00BEF2;shape=mxgraph.azure.user;fontColor=default;" vertex="1" parent="1">
          <mxGeometry x="1352" y="740" width="47.5" height="50" as="geometry" />
        </mxCell>
        <mxCell id="BFQpyUgomfKUz68zjJW1-135" value="&lt;div style=&quot;text-align: left&quot;&gt;&lt;br&gt;&lt;/div&gt;" style="verticalLabelPosition=bottom;html=1;verticalAlign=top;align=center;strokeColor=none;fillColor=#00BEF2;shape=mxgraph.azure.git_repository;fontColor=default;" vertex="1" parent="1">
          <mxGeometry x="1238.25" y="740" width="50" height="50" as="geometry" />
        </mxCell>
        <mxCell id="BFQpyUgomfKUz68zjJW1-138" value="" style="shape=image;verticalLabelPosition=bottom;labelBackgroundColor=#ffffff;verticalAlign=top;aspect=fixed;imageAspect=0;image=https://upload.wikimedia.org/wikipedia/commons/thumb/f/f9/Salesforce.com_logo.svg/1280px-Salesforce.com_logo.svg.png;fontColor=default;strokeColor=default;" vertex="1" parent="1">
          <mxGeometry x="1405.72" y="1094" width="68.57" height="48" as="geometry" />
        </mxCell>
        <mxCell id="BFQpyUgomfKUz68zjJW1-139" style="edgeStyle=orthogonalEdgeStyle;rounded=0;orthogonalLoop=1;jettySize=auto;html=1;labelBackgroundColor=default;fontSize=12;fontColor=default;endArrow=block;endFill=0;endSize=8;strokeColor=#b85450;strokeWidth=3;fillColor=#f8cecc;dashed=1;" edge="1" parent="1" source="BFQpyUgomfKUz68zjJW1-133">
          <mxGeometry relative="1" as="geometry">
            <mxPoint x="1315.0757142857144" y="879.1" as="sourcePoint" />
            <mxPoint x="1317" y="970" as="targetPoint" />
            <Array as="points" />
          </mxGeometry>
        </mxCell>
        <mxCell id="BFQpyUgomfKUz68zjJW1-140" value="BDNX12" style="text;html=1;strokeColor=none;fillColor=default;align=center;verticalAlign=middle;whiteSpace=wrap;rounded=0;fontColor=default;fontStyle=1" vertex="1" parent="1">
          <mxGeometry x="1192" y="840" width="250" height="30" as="geometry" />
        </mxCell>
        <mxCell id="BFQpyUgomfKUz68zjJW1-141" value="" style="shape=image;verticalLabelPosition=bottom;labelBackgroundColor=#ffffff;verticalAlign=top;aspect=fixed;imageAspect=0;image=data:image/svg+xml,PHN2ZyB4bWxucz0iaHR0cDovL3d3dy53My5vcmcvMjAwMC9zdmciIHZpZXdCb3g9IjAgMCA2NCA2NCIgd2lkdGg9IjY0IiBoZWlnaHQ9IjY0Ij48ZGVmcz48c3R5bGU+LmNscy0xe2ZpbGw6bm9uZTt9LmNscy0ye2ZpbGw6IzZiOTY2MDt9LmNscy0ze2ZpbGw6IzQxNjUzNzt9LmNscy00e2ZpbGw6I2ZmZjt9PC9zdHlsZT48L2RlZnM+PHRpdGxlPmNvbW1lcmNlLWRheTwvdGl0bGU+PGcgaWQ9ImludmlzaS1ib3JkZXIiPjxyZWN0IGNsYXNzPSJjbHMtMSIgd2lkdGg9IjY0IiBoZWlnaHQ9IjY0Ii8+PC9nPjxnIGlkPSJpY29uIj48cG9seWdvbiBjbGFzcz0iY2xzLTIiIHBvaW50cz0iMTkuOTI5IDM2IDUxLjkyOSAzNiA1NiAxNyAxNS45MjkgMTcgMTkuOTI5IDM2Ii8+PHBhdGggY2xhc3M9ImNscy0zIiBkPSJNNTMuOTI4NzEsNDdoLTMzYTIuMDAwMTEsMi4wMDAxMSwwLDAsMS0xLjk2LTEuNjAwNTlMMTIuMzY2NywxM0g4QTIsMiwwLDAsMSw4LDloNmEyLjAwMDExLDIuMDAwMTEsMCwwLDEsMS45NiwxLjYwMDU5TDIyLjU2Miw0M2gzMS4zNjY3YTIsMiwwLDAsMSwwLDRaIi8+PHBhdGggY2xhc3M9ImNscy0zIiBkPSJNNTEuOTI4NzEsMzhoLTMyYTIsMiwwLDAsMSwwLTRINTAuMzEybDMuMjEzODctMTVIMTUuOTI4NzFhMiwyLDAsMCwxLDAtNEg1NmExLjk5OTY0LDEuOTk5NjQsMCwwLDEsMS45NTU1NywyLjQxODk1bC00LjA3MTI5LDE5QTIuMDAwNjIsMi4wMDA2MiwwLDAsMSw1MS45Mjg3MSwzOFoiLz48Y2lyY2xlIGNsYXNzPSJjbHMtNCIgY3g9IjIxIiBjeT0iNDkiIHI9IjQiLz48cGF0aCBjbGFzcz0iY2xzLTMiIGQ9Ik0yMSw1NWE2LDYsMCwxLDEsNi02QTYuMDA2NTYsNi4wMDY1NiwwLDAsMSwyMSw1NVptMC04YTIsMiwwLDEsMCwyLDJBMi4wMDIyOSwyLjAwMjI5LDAsMCwwLDIxLDQ3WiIvPjxjaXJjbGUgY2xhc3M9ImNscy00IiBjeD0iNDciIGN5PSI0OSIgcj0iNCIvPjxwYXRoIGNsYXNzPSJjbHMtMyIgZD0iTTQ3LDU1YTYsNiwwLDEsMSw2LTZBNi4wMDY1Niw2LjAwNjU2LDAsMCwxLDQ3LDU1Wm0wLThhMiwyLDAsMSwwLDIsMkEyLjAwMjI5LDIuMDAyMjksMCwwLDAsNDcsNDdaIi8+PC9nPjwvc3ZnPg==;fontColor=default;strokeColor=default;" vertex="1" parent="1">
          <mxGeometry x="1405.72" y="848" width="64" height="64" as="geometry" />
        </mxCell>
        <mxCell id="BFQpyUgomfKUz68zjJW1-144" value="MPS" style="swimlane;horizontal=0;labelBackgroundColor=default;fontSize=12;fontColor=default;strokeColor=default;fillColor=default;align=center;" vertex="1" parent="1">
          <mxGeometry x="-60" y="470" width="1590" height="980" as="geometry" />
        </mxCell>
        <mxCell id="BFQpyUgomfKUz68zjJW1-137" value="SBX2" style="rounded=1;whiteSpace=wrap;html=1;fontColor=default;fillColor=default;strokeColor=default;" vertex="1" parent="BFQpyUgomfKUz68zjJW1-144">
          <mxGeometry x="1264" y="497.72" width="228" height="114.55" as="geometry" />
        </mxCell>
      </root>
    </mxGraphModel>
  </diagram>
</mxfile>
